#tb 0: 1001/30000
#media_type 0: video
#codec_id 0: rawvideo
#dimensions 0: 128x96
#sar 0: 1/1
0,          0,          0,        1,    18432, 0x6d0b2f1f
0,          2,          2,        1,    18432, 0xf52d5747
0,          4,          4,        1,    18432, 0x707a730d
0,          6,          6,        1,    18432, 0xaa8d3b0b
0,          8,          8,        1,    18432, 0x4f3c5702
